<svg width="24" height="24" viewBox="0 0 24 24" fill="none" xmlns="http://www.w3.org/2000/svg">
<path fill-rule="evenodd" clip-rule="evenodd" d="M10.75 3.25C6.60786 3.25 3.25 6.60786 3.25 10.75C3.25 14.8921 6.60786 18.25 10.75 18.25C14.8921 18.25 18.25 14.8921 18.25 10.75C18.25 6.60786 14.8921 3.25 10.75 3.25ZM0.75 10.75C0.75 5.22715 5.22715 0.75 10.75 0.75C16.2728 0.75 20.75 5.22715 20.75 10.75C20.75 13.0609 19.9661 15.1887 18.6498 16.8821L22.8839 21.1161C23.372 21.6043 23.372 22.3957 22.8839 22.8839C22.3957 23.372 21.6043 23.372 21.1161 22.8839L16.8821 18.6498C15.1887 19.9661 13.0609 20.75 10.75 20.75C5.22715 20.75 0.75 16.2728 0.75 10.75Z" fill="#252525"/>
</svg>
