<svg width="34" height="31" viewBox="0 0 34 31" fill="none" xmlns="http://www.w3.org/2000/svg">
<path fill-rule="evenodd" clip-rule="evenodd" d="M9.96891 0.666656C4.56181 0.666656 0.333496 5.36635 0.333496 10.9266C0.333496 13.8185 0.796293 16.1999 2.52154 18.7057C4.16767 21.0966 6.905 23.5094 11.1524 26.6926L17.0002 30.6667L22.8474 26.6929C27.0951 23.5096 29.8326 21.0967 31.4788 18.7057C33.204 16.1999 33.6668 13.8185 33.6668 10.9266C33.6668 5.36635 29.4385 0.66666 24.0314 0.66666C21.3184 0.66666 18.9698 1.772 17.0002 3.77204C15.0305 1.772 12.6819 0.666656 9.96891 0.666656ZM9.96891 3.99999C6.62601 3.99999 3.66683 6.97582 3.66683 10.9266C3.66683 11.8415 3.71861 12.6458 3.84771 13.3875C4.06394 14.63 4.49707 15.6971 5.26706 16.8154C6.5757 18.7161 8.91451 20.8499 13.1528 24.0262L17.0002 26.9156L20.8476 24.0262C25.0858 20.8499 27.4246 18.7161 28.7333 16.8154C29.963 15.0294 30.3335 13.3741 30.3335 10.9266C30.3335 6.97582 27.3743 3.99999 24.0314 3.99999C21.972 3.99999 20.0837 4.97711 18.339 7.3305C18.0247 7.75455 17.528 8.00461 17.0002 8.00461C16.4723 8.00461 15.9756 7.75455 15.6613 7.3305C13.9166 4.97711 12.0283 3.99999 9.96891 3.99999Z" fill="#F1F2F0"/>
</svg>
